<svg width="568" height="433" viewBox="0 0 568 433" fill="none" xmlns="http://www.w3.org/2000/svg">
<path d="M97.3352 409.913C97.3352 409.913 26.6038 358.877 6.24179 272.007C-14.1209 185.136 16.9579 79.8053 75.9008 26.5967C134.843 -26.6106 240.94 9.22305 288.094 53.7442C335.247 98.2653 335.247 98.2653 335.247 98.2653C335.247 98.2653 380.258 123.24 439.201 121.068C498.144 118.897 550.655 200.338 564.587 264.406C578.518 328.472 545.296 413.17 545.296 413.17L97.3352 409.913Z" fill="#94BF54"/>
<path d="M57.1464 417.619C42.6273 406.962 12.6422 379.905 3.02665 332.815C-0.963864 313.272 1.65025 294.249 7.3137 276.368C21.4787 331.458 55.6344 371.62 77.5646 392.811H57.1464V417.619ZM553.267 392.811H552.2C557.416 375.777 564.121 349.905 566.808 322.398C568.395 336.735 567.07 351.606 562.443 368.65C559.869 378.138 556.679 386.125 553.267 392.811ZM533.377 188.769C509.965 151.012 476.988 121.026 441.513 121.026C440.745 121.026 439.971 121.041 439.202 121.068C436.744 121.159 434.316 121.202 431.91 121.202C376.588 121.202 335.247 98.2652 335.247 98.2652C335.247 98.2652 335.247 98.2652 288.094 53.7441C285.538 51.3311 282.805 48.9391 279.92 46.5905C306.346 32.7398 337.659 3.10849 383.269 3.10849C389.494 3.10849 395.983 3.65958 402.764 4.87985C469.207 16.824 533.509 52.6576 536.724 130.842C537.816 157.407 535.692 175.197 533.377 188.769Z" fill="#94BF54"/>
<path d="M552.2 392.811H459.783C468.758 368.639 478.748 334.622 475.798 308.925C470.688 264.406 446.155 222.056 396.067 189.479C377.085 177.133 347.242 168.063 314.767 166.109C316.75 153.847 316.838 140.919 316.225 134.099C315.154 122.155 309.528 112.381 309.528 112.381C309.528 112.381 298.949 106.302 285.427 106.302C281.335 106.302 276.973 106.86 272.554 108.309C253.532 114.552 246.834 144.415 248.977 160.16C249.589 164.647 250.694 168.504 252.159 171.892C219.418 180.521 189.278 198.832 170.162 230.742C142.095 277.596 143.877 326.832 151.409 361.645V392.811H77.5644C55.6342 371.621 21.4785 331.458 7.31348 276.368C19.9018 236.624 47.5564 202.511 51.2517 180.792C56.6105 149.301 44.8219 110.209 94.1197 79.8053C143.416 49.3998 231.295 60.2588 264.517 52.6578C269.505 51.5162 274.613 49.3723 279.92 46.5906C282.805 48.9393 285.538 51.3312 288.094 53.7442C335.247 98.2653 335.247 98.2653 335.247 98.2653C335.247 98.2653 376.588 121.202 431.909 121.202C434.315 121.202 436.743 121.159 439.201 121.068C439.97 121.041 440.745 121.026 441.513 121.026C476.988 121.026 509.965 151.012 533.376 188.769C528.879 215.14 523.666 225.587 539.938 253.547C554.915 279.278 564.353 300.199 566.808 322.398C564.121 349.905 557.416 375.777 552.2 392.811Z" fill="#B9D948"/>
<path d="M459.783 392.811H369.802C371.299 387.353 374.899 367.293 374.899 367.293C374.899 367.293 344.356 340.779 342.749 336.435C341.677 333.539 342.213 279.879 337.658 255.175C333.103 230.471 327.21 225.494 314.886 219.341C302.149 212.982 283.27 207.034 283.27 207.034C283.27 207.034 287.021 215.812 290.503 236.443C293.988 257.076 297.202 291.823 298.006 315.713C298.735 337.373 299.243 384.25 299.332 392.811H261.446C262.09 386.682 264.619 361.764 263.444 359.149C262.928 357.994 250.424 357.328 235.269 356.942V258.976C235.269 258.976 219.858 257.886 203.087 257.886C187.435 257.886 170.598 258.836 164.001 262.504C150.338 270.105 151.409 296.439 151.409 296.439V361.645C143.876 326.832 142.095 277.596 170.161 230.742C189.277 198.832 219.417 180.521 252.159 171.892C252.305 172.229 252.454 172.562 252.607 172.89C251.532 181.547 249.417 197.743 248.441 199.523C247.102 201.966 247.102 201.966 247.102 201.966L240.403 206.582C240.403 206.582 253.263 225.042 269.071 228.027C271.218 228.434 273.048 228.609 274.608 228.609C284.539 228.609 283.538 221.513 283.538 221.513L281.127 216.355L283.23 197.896C284.878 198.155 286.554 198.295 288.224 198.295C295.168 198.295 302.034 195.891 306.579 189.751C310.718 184.16 313.278 175.323 314.767 166.109C347.242 168.063 377.085 177.133 396.066 189.479C446.155 222.056 470.688 264.406 475.798 308.925C478.747 334.622 468.758 368.639 459.783 392.811Z" fill="#94BF54"/>
<path d="M520.783 255.265H463C459.426 255.265 456.525 252.328 456.525 248.705V219.476C456.525 215.854 459.426 212.916 463 212.916H520.783C524.358 212.916 527.258 215.854 527.258 219.476V248.705C527.258 252.328 524.358 255.265 520.783 255.265Z" fill="#185917"/>
<path d="M491.891 271.826L501.048 249.836H482.735L491.891 271.826Z" fill="#185917"/>
<path d="M491.673 226.819H508.213V229.271L516.322 224.533L508.213 219.797V222.249H491.673V226.819Z" fill="#185917"/>
<path d="M516.322 236.457H499.782V234.004L491.673 238.741L499.782 243.478V241.025H516.322V236.457Z" fill="white"/>
<path d="M481.52 240.767L480.733 241.058C480.733 241.058 478.279 238.219 477.005 235.126C475.731 232.035 475.687 228.258 475.687 228.258L476.263 228.014L472.764 219.533C472.141 220.026 471.547 220.661 471.066 221.484C469.088 224.873 469.283 230.074 471.275 235.156C473.265 240.237 475.394 244.769 479.279 247.619C481.571 249.301 483.535 249.595 485.061 249.35L481.52 240.767Z" fill="#185917"/>
<path d="M484.032 239.768L482.944 240.169L486.524 248.852C486.929 248.718 487.291 248.553 487.606 248.378C488.531 247.865 488.937 246.738 488.548 245.746L486.678 240.972C486.262 239.913 485.09 239.377 484.032 239.768Z" fill="#185917"/>
<path d="M475.499 218.046C475.058 218.206 474.579 218.424 474.098 218.712L477.669 227.374L478.871 226.865C479.915 226.424 480.42 225.22 480.008 224.153L478.13 219.269C477.723 218.209 476.555 217.659 475.499 218.046Z" fill="#185917"/>
<path d="M151.409 394.168V296.439C151.409 296.439 150.338 270.105 164.001 262.504C177.666 254.903 235.269 258.976 235.269 258.976V394.168H151.409Z" fill="#343537"/>
<path d="M253.264 167.489C253.264 167.489 249.782 197.08 248.442 199.523C247.103 201.966 247.103 201.966 247.103 201.966L240.404 206.582C240.404 206.582 253.264 225.042 269.071 228.027C284.879 231.014 283.539 221.513 283.539 221.513L281.127 216.355L284.344 188.121C284.344 188.121 255.675 174.82 253.264 167.489Z" fill="#F57C83"/>
<path d="M232.098 209.026L242.547 204.41C242.547 204.41 249.245 215.54 264.785 222.056C280.324 228.571 280.592 224.771 281.395 222.056C282.199 219.341 281.127 216.355 281.127 216.355L282.277 206.85L288.491 208.948L310.063 385.752L254.604 388.467L232.098 209.026Z" fill="white"/>
<path d="M283.27 207.034C283.27 207.034 287.021 215.812 290.504 236.443C293.988 257.076 297.202 291.823 298.007 315.713C298.809 339.603 299.347 394.168 299.347 394.168C299.347 394.168 368.469 394.168 369.274 394.168C370.077 394.168 374.899 367.293 374.899 367.293C374.899 367.293 344.357 340.78 342.75 336.435C341.677 333.539 342.213 279.879 337.658 255.175C333.103 230.471 327.21 225.494 314.886 219.341C302.149 212.982 283.27 207.034 283.27 207.034Z" fill="#185917"/>
<path d="M319.708 363.062C319.35 363.062 319.06 362.768 319.06 362.406C319.06 360.465 318.72 332.888 318.392 306.22C318.062 279.547 317.721 251.967 317.721 250.017C317.721 249.654 318.011 249.361 318.369 249.361C318.726 249.361 319.016 249.654 319.016 250.017C319.016 251.958 319.357 279.534 319.686 306.203C320.015 332.875 320.355 360.456 320.355 362.406C320.355 362.768 320.066 363.062 319.708 363.062Z" fill="#94BF54"/>
<path d="M180.389 356.433L179.854 394.168H261.301C261.301 394.168 264.784 362.134 263.444 359.149C262.105 356.161 180.389 356.433 180.389 356.433Z" fill="#185917"/>
<path d="M282.431 204.911C278.895 203.596 274.355 201.421 271.036 198.71C265.222 193.96 261.497 188.302 259.083 182.752C261.771 185.847 264.744 188.525 267.731 191.107C271.515 194.377 277.192 196.945 283.23 197.896L282.431 204.911Z" fill="#945168"/>
<path d="M309.528 112.381C309.528 112.381 315.154 122.155 316.225 134.099C317.298 146.044 316.225 176.72 306.579 189.751C296.935 202.781 276.841 198.98 267.731 191.107C259.372 183.883 251.121 175.905 248.977 160.16C246.834 144.415 253.532 114.553 272.555 108.31C291.576 102.065 309.528 112.381 309.528 112.381Z" fill="#F57C83"/>
<path d="M333.697 377.101C333.697 377.101 332.751 377.101 331.314 377.062C330.977 377.049 330.602 377.062 330.212 377.049C328.828 377.01 327.144 376.972 325.448 376.919C325.072 376.905 324.684 376.891 324.308 376.878C322.625 376.839 321.187 377.049 319.841 376.972H319.802C319.517 376.957 319.103 376.996 318.766 377.01C318.597 377.024 318.442 377.036 318.338 377.024C317.562 376.878 317.406 376.696 316.564 376.315C315.477 375.816 300.752 372.484 288.774 372.562C276.809 372.614 266.074 373.441 264.326 371.958C262.565 370.449 261.503 355.217 271.72 354.218L284.281 359.047C284.281 359.047 312.964 355.597 323.479 363.455C334.02 371.315 333.697 377.101 333.697 377.101Z" fill="#F57C83"/>
<path d="M319.802 376.971C319.518 376.957 319.103 376.996 318.766 377.009C318.507 376.591 317.962 375.828 317.666 375.514C314.428 372.168 306.607 370.003 303.771 369.307C303.512 369.242 303.342 368.979 303.408 368.718C303.46 368.454 303.732 368.297 304.004 368.349C308.135 369.36 316.902 371.946 319.388 376.183C319.466 376.301 319.673 376.708 319.802 376.971Z" fill="#185917"/>
<path d="M325.452 376.918C325.076 376.908 324.688 376.898 324.312 376.876C320.777 370.344 314.994 368.469 307.847 366.14L307.423 365.997C307.179 365.913 307.03 365.633 307.115 365.374C307.198 365.126 307.461 364.975 307.73 365.06L308.141 365.202C315.698 367.659 321.779 369.634 325.452 376.918Z" fill="#185917"/>
<path d="M331.315 377.062C330.979 377.053 330.603 377.057 330.213 377.048C328.07 372.48 320.975 364.837 311.588 363.055C311.318 363.009 311.141 362.756 311.187 362.482C311.245 362.219 311.495 362.044 311.754 362.09C321.423 363.929 329.224 371.932 331.315 377.062Z" fill="#185917"/>
<path d="M255.406 146.723C255.406 146.723 261.301 143.872 265.454 135.864C269.607 127.856 269.071 120.662 269.071 120.662C269.071 120.662 276.572 119.44 287.825 122.833C299.077 126.226 312.473 130.842 323.727 124.327C334.98 117.811 334.98 107.36 329.486 103.017C323.335 98.1513 311.134 101.115 311.134 101.115C311.134 101.115 315.822 96.5007 313.278 93.7859C310.732 91.0712 301.49 94.6007 301.49 94.6007C301.49 94.6007 290.237 85.5065 268.937 86.5916C247.637 87.678 237.456 102.745 236.25 119.575C235.045 136.407 241.074 153.237 241.074 153.237L255.406 146.723Z" fill="#185917"/>
<path d="M299.031 174.411C298.785 174.411 298.527 174.404 298.254 174.392C296.677 174.331 294.694 174.067 293.341 173.209C292.941 172.954 293.092 172.292 293.583 172.292C293.584 172.292 293.584 172.292 293.586 172.292C294.427 172.296 295.25 172.553 296.09 172.617C296.871 172.675 297.661 172.709 298.443 172.746C298.897 172.767 299.436 172.809 299.985 172.809C300.808 172.809 301.648 172.714 302.246 172.313C304.862 170.558 299.777 168.394 298.701 167.59C296.45 165.91 296.902 163.007 297.138 160.518C297.442 157.318 297.412 153.817 298.619 150.802C298.706 150.587 298.929 150.473 299.134 150.473C299.368 150.473 299.581 150.618 299.554 150.931C299.213 154.773 298.337 158.564 298.099 162.425C297.998 164.031 297.881 165.763 299.299 166.791C300.322 167.534 301.565 167.888 302.579 168.649C303.458 169.311 304.335 170.372 304.178 171.556C304.041 172.608 303.194 173.229 302.32 173.668C301.147 174.259 300.212 174.411 299.031 174.411Z" fill="#945168"/>
<path d="M309.571 159.83C309.171 162.118 307.529 163.736 305.901 163.444C304.274 163.153 303.28 161.06 303.679 158.773C304.079 156.485 305.721 154.866 307.349 155.157C308.975 155.448 309.971 157.541 309.571 159.83Z" fill="#185917"/>
<path d="M289.07 158.016C288.708 160.486 286.992 162.271 285.236 162.008C283.48 161.743 282.351 159.526 282.713 157.058C283.076 154.589 284.793 152.802 286.549 153.067C288.304 153.332 289.433 155.548 289.07 158.016Z" fill="#185917"/>
<path d="M304.797 150.397C306.049 150.61 307.313 150.391 308.576 150.482C308.88 150.503 309.179 150.549 309.484 150.579C309.699 150.599 309.081 150.513 309.381 150.563L309.574 150.596C309.732 150.625 309.89 150.658 310.046 150.696C310.315 150.763 310.575 150.865 310.845 150.925C311.089 150.979 311.361 151.037 311.607 151.025C311.746 151.007 311.882 150.988 312.02 150.969L311.76 151.017L312.273 150.961C312.992 150.79 313.435 149.948 313.234 149.245C313.176 149.042 313.087 148.859 312.961 148.692L312.796 148.481L312.948 148.657L312.782 148.434C312.711 148.313 312.616 148.216 312.496 148.144L312.193 147.91C311.861 147.677 311.425 147.54 311.031 147.438C310.284 147.242 309.499 147.143 308.73 147.139C307.963 147.135 307.207 147.216 306.45 147.322C305.781 147.415 305.038 147.646 304.495 148.054C304.077 148.371 303.82 148.776 303.892 149.331C303.953 149.79 304.31 150.313 304.797 150.397Z" fill="#185917"/>
<path d="M290.508 146.765C290.338 146.662 290.165 146.573 289.985 146.491C289.833 146.421 289.419 146.201 289.732 146.374L289.388 146.187C288.869 145.922 288.33 145.745 287.769 145.601C286.547 145.285 285.26 145.205 284.006 145.339C282.668 145.482 281.447 145.81 280.288 146.517C280.125 146.618 279.957 146.715 279.821 146.853C279.729 146.971 279.638 147.09 279.55 147.211L279.627 147.093C279.269 147.346 279.061 147.761 279.065 148.199C279.067 148.62 279.283 148.972 279.645 149.175C280.081 149.422 280.495 149.304 280.946 149.187C280.719 149.187 280.493 149.187 280.268 149.187C280.639 149.245 280.901 149.26 281.276 149.176C281.291 149.174 281.638 149.086 281.408 149.134C281.193 149.182 281.774 149.09 281.837 149.081C281.911 149.07 282.314 149.029 281.887 149.071L282.123 149.044C282.324 149.019 282.527 148.993 282.729 148.977C283.614 148.905 284.496 148.864 285.381 148.835C286.204 148.808 287.041 148.801 287.862 148.837C288.216 148.852 288.566 148.864 288.919 148.875C289.116 148.88 289.033 148.911 288.897 148.868L289.117 148.926C289.264 148.967 289.407 149.015 289.548 149.07C290.121 149.291 290.806 148.872 291.017 148.339C291.247 147.759 291.052 147.093 290.508 146.765Z" fill="#185917"/>
<path d="M296.868 184.502C298.099 181.997 300.335 180.162 302.921 178.981C300.677 178.75 290.078 177.755 287.404 179.294C284.407 181.017 287.958 187.939 294.153 188.286C294.804 188.323 295.396 188.269 295.959 188.18C296.01 186.916 296.297 185.666 296.868 184.502Z" fill="#185917"/>
<path d="M247.905 169.934C247.905 169.934 248.978 174.142 255.139 179.028C261.302 183.914 270.233 187.489 270.233 187.489L270.946 184.321C270.946 184.321 261.703 180.248 257.417 175.77C253.13 171.291 252.594 168.847 252.594 168.847L247.905 169.934Z" fill="#B9D948"/>
<path d="M272.018 181.978C276.978 181.744 279.745 185.717 280.091 188.288C280.437 190.86 278.054 193.742 272.479 191.21C265.555 188.065 267.06 182.211 272.018 181.978Z" fill="#185917"/>
<path d="M251.79 138.85C251.79 138.85 253.932 123.249 264.249 112.653C283.941 92.429 300.686 93.6493 300.686 93.6493C300.686 93.6493 300.551 90.7994 294.255 88.6278C288.344 86.5888 285.682 87.6779 285.682 87.6779C285.682 87.6779 269.472 89.0346 255.809 104.373C242.145 119.712 240.671 139.257 240.671 139.257L251.79 138.85Z" fill="#B9D948"/>
<path d="M250.316 136.949C237.416 134.734 230.223 144.958 229.687 155.274C229.15 165.59 236.548 173.432 246.432 172.648C268.67 170.884 266.124 139.665 250.316 136.949Z" fill="white"/>
<path d="M243.893 162.623C240.488 162.623 237.609 160.888 235.964 157.835C234.202 154.564 234.35 150.537 236.341 147.576C236.493 147.354 236.793 147.295 237.016 147.447C237.237 147.601 237.296 147.906 237.144 148.131C235.356 150.789 235.228 154.413 236.817 157.363C238.325 160.163 240.988 161.749 244.141 161.635C247.088 161.555 249.586 160.189 251.175 157.788C252.988 155.047 253.405 151.263 252.237 148.148C251.078 145.057 247.9 142.949 245.011 143.332C244.749 143.366 244.501 143.179 244.466 142.909C244.43 142.64 244.616 142.393 244.883 142.356C248.263 141.9 251.812 144.24 253.145 147.797C254.421 151.202 253.964 155.338 251.982 158.335C250.213 161.009 247.438 162.53 244.167 162.619L243.893 162.623Z" fill="#185917"/>
<path d="M234.509 205.224C234.509 205.224 195.394 214.997 181.729 230.742C168.065 246.488 161.636 324.129 161.368 338.516C161.1 352.905 171.012 358.877 176.907 362.949C182.802 367.022 208.789 374.351 229.686 375.438C250.584 376.523 270.411 375.438 270.411 375.438C270.411 375.438 270.344 370.822 273.558 364.034C276.54 357.74 280.324 356.433 280.324 356.433L262.374 349.918C262.374 349.918 259.231 292.85 254.336 265.221C248.709 233.457 234.509 205.224 234.509 205.224Z" fill="#185917"/>
<path d="M299.347 340.8L299.084 340.744C298.757 340.597 298.609 340.21 298.754 339.879C302.42 331.5 306.217 315.052 308.356 303.512L308.531 302.579C309.178 299.184 309.984 294.963 308.377 292.049C307.557 290.562 305.707 287.337 303.926 284.237C302.078 281.018 300.332 277.977 299.848 277.07C298.905 275.297 301.876 270.563 306.177 264.07C307.337 262.314 308.342 260.799 308.927 259.773C310.46 257.085 309.439 254.624 308.258 251.774L307.856 250.792C306.785 248.128 305.567 245.459 304.391 242.878C303.91 241.824 303.429 240.768 302.955 239.706C302.325 238.304 301.695 236.876 301.055 235.433C297.269 226.881 293.354 218.038 288.34 209.495C288.157 209.184 288.258 208.781 288.565 208.596C288.873 208.413 289.27 208.514 289.454 208.826C294.504 217.432 298.434 226.31 302.236 234.895C302.874 236.338 303.505 237.763 304.133 239.166C304.607 240.223 305.086 241.277 305.565 242.328C306.749 244.922 307.973 247.605 309.055 250.298L309.452 251.266C310.657 254.172 311.903 257.179 310.047 260.429C309.44 261.494 308.426 263.027 307.251 264.799C305.01 268.186 300.343 275.234 300.988 276.445C301.462 277.335 303.202 280.367 305.045 283.577C306.829 286.685 308.685 289.918 309.507 291.409C311.346 294.742 310.49 299.225 309.804 302.828L309.628 303.753C308.848 307.956 304.722 329.473 299.939 340.409C299.831 340.656 299.594 340.8 299.347 340.8Z" fill="#94BF54"/>
<path d="M261.168 343.109C261.001 343.109 260.834 343.044 260.708 342.916C257.664 339.806 242.982 314.048 241.889 309.204C241.29 306.552 242.793 299.826 244.246 293.321C245.371 288.281 246.535 283.069 246.204 281.659C245.709 279.55 241.955 276.442 238.324 273.437C233.938 269.808 229.403 266.052 228.525 262.671C227.526 258.828 228.38 234.768 228.944 218.848C229.148 213.123 229.308 208.602 229.307 206.989C229.307 206.627 229.597 206.333 229.955 206.333C230.312 206.333 230.602 206.626 230.602 206.988C230.603 208.625 230.443 213.157 230.238 218.895C229.711 233.776 228.828 258.68 229.777 262.338C230.549 265.306 235.115 269.086 239.143 272.421C243.116 275.71 246.868 278.815 247.463 281.356C247.864 283.061 246.772 287.95 245.508 293.609C244.154 299.675 242.619 306.549 243.151 308.911C244.224 313.661 258.638 338.937 261.628 341.989C261.879 342.248 261.878 342.662 261.624 342.917C261.497 343.044 261.332 343.109 261.168 343.109Z" fill="#94BF54"/>
<path d="M208.522 331.843L208.431 331.836C208.076 331.785 207.83 331.453 207.879 331.095C208.355 327.682 215.788 259.715 216.128 254.51C216.153 254.146 216.461 253.863 216.818 253.898C217.174 253.922 217.444 254.236 217.42 254.596C217.079 259.811 209.638 327.862 209.161 331.279C209.116 331.605 208.839 331.843 208.522 331.843Z" fill="#94BF54"/>
<path d="M261.838 350.302L261.594 350.254C259.947 349.579 252.671 347.091 243.459 343.944C224.866 337.59 199.401 328.889 194.559 326.34C194.241 326.173 194.118 325.777 194.283 325.455C194.447 325.133 194.836 325.004 195.156 325.176C199.909 327.678 226.366 336.719 243.873 342.699C253.106 345.856 260.398 348.347 262.081 349.038C262.413 349.174 262.572 349.556 262.437 349.892C262.335 350.147 262.093 350.302 261.838 350.302Z" fill="#94BF54"/>
<path d="M252.896 377.365C236.533 377.365 204.809 374.376 180.711 365.74C180.373 365.618 180.196 365.244 180.316 364.901C180.433 364.561 180.808 364.382 181.142 364.502C211.586 375.414 254.174 377.277 262.098 375.474C262.446 375.398 262.792 375.619 262.871 375.971C262.95 376.324 262.73 376.676 262.382 376.756C260.666 377.145 257.349 377.365 252.896 377.365Z" fill="#94BF54"/>
<path d="M65.6034 214.379C70.6835 218.906 77.1173 221.808 81.5753 227.044C83.3289 229.104 84.9046 231.296 86.5335 233.456C87.7188 235.028 90.8823 237.635 91.3951 239.611C91.6218 240.481 91.5738 239.303 91.3459 238.43L91.3084 238.321C90.8629 234.32 90.5444 230.304 90.4058 226.28C90.2672 222.266 90.5146 218.237 90.2659 214.229C89.9163 208.576 88.1746 203.101 83.6138 199.56C81.3845 197.828 78.52 196.775 76.4704 194.854C74.5253 193.03 75.3058 190.941 76.4495 188.907C77.5194 187.003 78.8169 185.134 79.2336 182.942C79.7077 180.452 78.784 177.883 77.5371 175.762C74.8846 171.249 69.0001 166.217 63.4283 166.891C58.7806 167.454 58.2541 172.886 58.3202 176.67C58.385 180.35 58.7442 184.017 58.7786 187.699C58.815 191.48 58.1801 195.191 58.127 198.955C58.037 205.36 60.9573 210.239 65.6034 214.379Z" fill="#94BF54"/>
<path d="M112.803 273.138C114.217 269.72 115.84 266.525 117.835 263.416C120.573 259.152 123.61 254.996 125.447 250.22C127.325 245.345 127.049 240.13 127.234 234.995C127.369 231.222 128.476 227.459 128.177 223.676C128.034 221.862 127.002 218.927 124.686 219.227C122.883 219.461 121.812 221.725 121.119 223.17C119.91 225.692 119.072 228.382 118.173 231.027C117.824 232.062 117.488 233.116 117.046 234.114C116.788 234.696 115.968 236.113 115.195 235.92C113.878 235.59 115.073 230.144 115.269 229.179C116.252 224.335 117.732 219.833 117.938 214.849C118.236 207.622 117.681 199.018 110.705 195.066C108.881 194.033 106.571 193.418 104.838 194.964C103.129 196.487 102.646 199.13 102.392 201.304C101.614 207.978 103.164 214.299 105.274 220.579C107.017 225.764 109.095 231.115 109.246 236.66C109.392 241.997 106.651 246.728 105.365 251.77C103.315 259.805 103.739 264.066 103.73 266.668C103.715 269.928 103.833 273.153 104.068 276.404C104.285 279.391 104.54 282.38 104.9 285.353C104.974 285.956 105.041 286.584 105.12 287.213C103.987 284.448 103.591 281.282 102.652 278.504C100.986 273.565 99.0483 268.729 97.4478 263.767C96.1256 259.666 94.8773 255.538 93.1304 251.597C91.4936 247.898 89.5162 243.989 86.4617 241.276C84.6154 239.636 82.3771 238.676 79.9076 238.696C78.3283 238.708 76.9089 239.262 75.4005 239.666C73.5441 240.163 72.0838 239.991 70.5566 238.802C65.5568 234.908 64.0363 227.926 60.3351 222.995C57.5743 219.318 51.0242 213.048 46.2075 217.06C43.6525 219.186 42.948 223.297 43.082 226.449C43.2503 230.402 44.9555 234.019 46.9865 237.325C49.1465 240.84 51.9346 243.988 53.9195 247.603C55.0931 249.738 55.2768 251.783 55.09 254.192C54.9151 256.461 54.7193 258.659 55.4825 260.847C57.7746 267.42 64.9316 266.502 70.498 266.674C74.3929 266.794 78.5716 267.381 82.2693 268.644C86.5432 270.101 89.3233 272.92 90.8513 277.203C91.9559 280.303 92.5477 283.822 94.63 286.456C95.609 287.694 96.9052 288.609 98.3309 289.248C100.501 290.219 107.12 290.644 107.169 290.031C107.332 287.98 108.292 285.817 108.893 283.871C110.019 280.222 111.344 276.662 112.803 273.138Z" fill="#94BF54"/>
<path d="M143.534 271.899C142.957 268.141 143.067 264 141.311 260.55C141.186 260.303 140.854 260.24 140.628 260.367C139.369 261.074 139.317 263.134 139.214 264.397C139.044 266.491 139.171 268.59 138.916 270.679C138.47 274.348 137.634 278.129 136.329 281.587C134.854 285.499 132.169 287.717 128.271 288.938C125.767 289.722 123.31 290.405 121.22 292.089C119.348 293.598 118.048 295.677 117.083 297.867C114.481 303.781 113.242 310.391 112.035 316.709C111.223 320.963 110.56 325.236 109.541 329.448C108.522 333.656 107.428 337.843 106.844 342.143C106.745 342.359 106.641 342.575 106.55 342.794C106.283 343.437 107.275 343.784 107.617 343.249C111.642 336.973 116.543 331.34 123.23 327.884C126.25 326.324 130.262 326 132.78 323.548C134.697 321.682 134.96 318.835 134.674 316.297C134.297 312.963 132.721 310.219 131.077 307.379C130.176 305.817 129.11 304.146 129.474 302.248C129.817 300.459 131.286 299.144 132.743 298.227C135.523 296.478 138.773 295.69 141.05 293.17C143.165 290.829 144.336 287.916 144.571 284.762C144.883 280.558 144.168 276.051 143.534 271.899Z" fill="#94BF54"/>
<path d="M88.6721 293.566C85.1218 288.932 80.836 284.935 76.0147 281.69C73.4421 279.96 67.3725 276.544 66.1479 281.651C65.4296 284.644 68.3204 287.588 70.223 289.464C73.0825 292.284 76.3896 294.717 78.802 297.967C75.8149 298.931 72.694 299.12 70.0985 301.212C67.026 303.69 65.6477 308.474 68.6943 311.509C70.1789 312.988 72.1476 313.896 73.9964 314.804C76.3997 315.982 78.8474 317.051 81.311 318.095C86.6303 320.345 92.0169 322.629 96.5531 326.318C101.176 330.075 105.523 336.43 105.89 342.561C105.926 343.147 105.706 342.614 106.05 342.346C106.239 342.518 106.874 342.21 106.87 341.869C106.775 332.769 105.162 324.107 101.492 315.772C98.0915 308.045 93.8001 300.26 88.6721 293.566Z" fill="#94BF54"/>
<path d="M76.4087 208.864C78.3673 212.984 80.4154 217.008 82.59 221.025C84.6828 224.892 86.7739 228.729 88.3392 232.855C90.2674 237.934 92.2888 242.937 94.327 247.972C96.4456 253.204 98.3388 258.537 99.8578 263.979C102.823 274.606 105.026 285.544 106.115 296.534C106.669 302.124 106.92 307.746 106.769 313.36C106.65 317.749 106.162 322.09 105.755 326.457C105.332 330.998 105.026 335.594 105.401 340.152C105.715 343.963 106.313 348.492 109.232 351.211C109.802 351.743 110.611 351.08 110.279 350.392C106.812 343.186 107.006 335.329 107.669 327.515C108.035 323.201 108.543 318.911 108.687 314.581C108.869 309.071 108.656 303.551 108.144 298.064C107.138 287.277 105.016 276.619 102.262 266.159C100.85 260.796 99.1028 255.537 97.0905 250.373C95.0716 245.199 92.742 240.167 90.7866 234.967C87.2514 225.563 81.8621 217.225 77.0896 208.461C76.8417 208.006 76.1907 208.406 76.4087 208.864Z" fill="#94BF54"/>
<path d="M106.274 285.76C106.835 278.912 107.433 272.318 109.712 265.785C110.774 262.738 112.062 259.775 113.088 256.717C113.935 254.188 115.203 250.722 114.55 248.035C114.477 247.734 114.046 247.75 113.965 248.035C113.528 249.57 113.576 251.253 113.263 252.826C112.956 254.358 112.548 255.864 112.078 257.352C111.078 260.517 109.772 263.549 108.64 266.664C106.454 272.681 105.331 279.347 105.809 285.76C105.831 286.063 106.249 286.063 106.274 285.76Z" fill="#94BF54"/>
<path d="M67.11 246.405C69.793 252.972 77.8577 253.351 83.7315 254.822C87.9263 255.872 91.0226 258.707 93.246 262.388C95.6805 266.415 97.3264 271.142 98.6796 275.636L98.7586 275.615C97.1153 267.744 94.7611 258.266 86.7534 254.604C80.3363 251.669 71.8801 253.144 67.7758 246.12C67.574 245.775 66.9478 246.007 67.11 246.405Z" fill="#94BF54"/>
<path d="M102.033 284.721C102.353 285.158 102.646 285.615 102.975 286.042C103.138 286.255 103.304 286.454 103.509 286.625C103.721 286.799 103.967 287.016 104.255 287.011C104.376 287.008 104.46 286.873 104.395 286.764C104.263 286.545 104.024 286.412 103.837 286.246C103.644 286.074 103.449 285.904 103.262 285.727C102.887 285.368 102.543 284.977 102.177 284.609L102.033 284.721Z" fill="#94BF54"/>
<path d="M85.2575 305.553C89.8855 309.402 94.1549 313.956 97.5464 318.946C99.1677 321.331 100.665 323.856 102.022 326.404C103.504 329.188 104.477 332.13 105.639 335.05C105.727 335.271 106.127 335.277 106.096 334.988C105.453 328.812 101.593 323.517 98.5008 318.379C96.895 315.71 94.8982 313.559 92.7512 311.333C90.5342 309.034 88.2746 306.86 85.6753 305.006C85.3591 304.781 84.9555 305.301 85.2575 305.553Z" fill="#94BF54"/>
<path d="M122.106 298.283C119.877 299.562 119.805 303.13 119.761 305.408C119.676 309.784 120.746 313.893 118.85 318.063C117.138 321.83 114.403 324.975 112.254 328.473C110.24 331.747 108.255 335.933 108.299 339.874C108.302 340.101 108.646 340.231 108.751 339.999C109.562 338.209 109.853 336.177 110.434 334.302C111.087 332.193 111.999 330.279 113.18 328.425C115.249 325.176 117.788 322.218 119.468 318.724C121.237 315.041 120.978 311.394 120.86 307.403C120.786 304.859 120.535 300.771 122.559 298.879C122.878 298.582 122.471 298.074 122.106 298.283Z" fill="#94BF54"/>
<path d="M107.204 340.281C98.2259 340.155 81.125 340.055 81.125 340.055L85.3569 371.89C86.3083 379.051 92.3417 384.395 99.473 384.395H106.846H107.56H114.932C122.065 384.395 128.098 379.051 129.05 371.89L133.281 340.055C133.281 340.055 116.18 340.155 107.204 340.281Z" fill="white"/>
<path d="M541.145 281.779L489.926 384.575L340.607 385.663L386.689 280.331L541.145 281.779Z" fill="#F5F6F9"/>
<path d="M241.504 385.021L241.533 376.794H338.196L382.669 277.978H537.259L541.145 281.779H390.127L343.91 384.938C343.91 384.938 241.504 384.751 241.504 385.021Z" fill="#D1D8E8"/>
<path d="M463.606 338.504C461.919 343.632 452.763 347.592 443.156 347.348C433.549 347.105 427.129 342.752 428.815 337.623C430.502 332.496 439.657 328.536 449.265 328.78C458.872 329.024 465.293 333.378 463.606 338.504Z" fill="#D1D8E8"/>
<path d="M343.911 385.595L343.643 385.536C343.318 385.386 343.173 384.998 343.32 384.667L389.709 281.123H541.145C541.503 281.123 541.792 281.416 541.792 281.779C541.792 282.141 541.503 282.435 541.145 282.435H390.543L344.5 385.21C344.393 385.45 344.156 385.595 343.911 385.595Z" fill="white"/>
<path d="M57.1465 432.716H234.777V392.811H57.1465V432.716Z" fill="#185917"/>
<path d="M233.762 432.716H553.355V392.811H233.762V432.716Z" fill="#B9D948"/>
<path d="M57.1465 400.141H233.762V392.811H57.1465V400.141Z" fill="#185917"/>
<path d="M553.355 400.141H233.762V392.811H553.355V400.141Z" fill="#185917"/>
<path d="M242.547 394.711H48.5728V384.938H242.547V394.711Z" fill="#B9D948"/>
<path d="M561.125 394.711H241.533V384.938H561.125V394.711Z" fill="#185917"/>
<path d="M189.93 175.564H127.224C123.343 175.564 120.197 172.377 120.197 168.445V136.725C120.197 132.794 123.343 129.605 127.224 129.605H189.93C193.81 129.605 196.957 132.794 196.957 136.725V168.445C196.957 172.377 193.81 175.564 189.93 175.564Z" fill="white"/>
<path d="M214.827 152.585L191.276 142.516V162.654L214.827 152.585Z" fill="white"/>
<path d="M148.039 152.585C148.039 155.013 146.097 156.979 143.701 156.979C141.305 156.979 139.363 155.013 139.363 152.585C139.363 150.156 141.305 148.19 143.701 148.19C146.097 148.19 148.039 150.156 148.039 152.585Z" fill="#185917"/>
<path d="M162.915 152.585C162.915 155.013 160.973 156.979 158.577 156.979C156.182 156.979 154.239 155.013 154.239 152.585C154.239 150.156 156.182 148.19 158.577 148.19C160.973 148.19 162.915 150.156 162.915 152.585Z" fill="#185917"/>
<path d="M177.791 152.585C177.791 155.013 175.849 156.979 173.453 156.979C171.058 156.979 169.115 155.013 169.115 152.585C169.115 150.156 171.058 148.19 173.453 148.19C175.849 148.19 177.791 150.156 177.791 152.585Z" fill="#185917"/>
<path d="M509.173 32.0262H364.407C355.109 32.0262 347.572 39.6626 347.572 49.0836V118.671C347.572 128.091 355.109 135.729 364.407 135.729H377.382C377.747 142.036 376.855 151.42 371.656 163.418C388.381 155.6 398.013 143.862 403.044 135.729H509.173C518.469 135.729 526.007 128.091 526.007 118.671V49.0836C526.007 39.6626 518.469 32.0262 509.173 32.0262Z" fill="#185917"/>
<path d="M447.417 65.1911H375.614C373.642 65.1911 372.042 63.5706 372.042 61.5723C372.042 59.5726 373.642 57.9522 375.614 57.9522H447.417C449.39 57.9522 450.989 59.5726 450.989 61.5723C450.989 63.5706 449.39 65.1911 447.417 65.1911Z" fill="white"/>
<path d="M498.902 86.2753H374.23C373.022 86.2753 372.042 85.2833 372.042 84.0591C372.042 82.8349 373.022 81.8417 374.23 81.8417H498.902C500.111 81.8417 501.091 82.8349 501.091 84.0591C501.091 85.2833 500.111 86.2753 498.902 86.2753Z" fill="#B9D948"/>
<path d="M498.902 98.5828H374.23C373.022 98.5828 372.042 97.5895 372.042 96.3653C372.042 95.1411 373.022 94.1479 374.23 94.1479H498.902C500.111 94.1479 501.091 95.1411 501.091 96.3653C501.091 97.5895 500.111 98.5828 498.902 98.5828Z" fill="#B9D948"/>
<path d="M471.706 111.704H374.23C373.022 111.704 372.042 110.711 372.042 109.487C372.042 108.262 373.022 107.269 374.23 107.269H471.706C472.915 107.269 473.896 108.262 473.896 109.487C473.896 110.711 472.915 111.704 471.706 111.704Z" fill="#B9D948"/>
<path d="M497.923 65.1911H463.67C461.698 65.1911 460.098 63.5706 460.098 61.5723C460.098 59.5726 461.698 57.9522 463.67 57.9522H497.923C499.897 57.9522 501.495 59.5726 501.495 61.5723C501.495 63.5706 499.897 65.1911 497.923 65.1911Z" fill="white"/>
<path d="M411.593 225.224H372.7C371.269 225.224 370.11 224.048 370.11 222.599V195.678C370.11 194.229 371.269 193.053 372.7 193.053H411.593C413.024 193.053 414.183 194.229 414.183 195.678V222.599C414.183 224.048 413.024 225.224 411.593 225.224Z" fill="white"/>
<path d="M392.416 213.946C392.197 213.946 391.977 213.87 391.797 213.72L370.63 196.006C370.217 195.659 370.159 195.04 370.501 194.62C370.844 194.201 371.456 194.144 371.867 194.489L392.399 211.671L412.408 194.03C412.812 193.674 413.425 193.717 413.778 194.127C414.13 194.537 414.087 195.158 413.682 195.515L393.053 213.703C392.871 213.865 392.643 213.946 392.416 213.946Z" fill="#B9D948"/>
<path d="M371.249 224.489C371.008 224.489 370.767 224.398 370.58 224.217C370.191 223.842 370.176 223.22 370.546 222.826L385.35 207.058C385.716 206.663 386.334 206.647 386.721 207.022C387.111 207.397 387.126 208.019 386.756 208.414L371.952 224.183C371.762 224.387 371.505 224.489 371.249 224.489Z" fill="#B9D948"/>
<path d="M413.045 223.911C412.796 223.911 412.548 223.816 412.357 223.623L397.613 208.642C397.235 208.258 397.235 207.633 397.615 207.25C397.996 206.866 398.611 206.867 398.989 207.251L413.734 222.232C414.112 222.618 414.112 223.241 413.731 223.624C413.541 223.816 413.293 223.911 413.045 223.911Z" fill="#B9D948"/>
<path d="M429.198 192.057C429.198 199.329 423.381 205.224 416.204 205.224C409.028 205.224 403.211 199.329 403.211 192.057C403.211 184.787 409.028 178.892 416.204 178.892C423.381 178.892 429.198 184.787 429.198 192.057Z" fill="#F1494A"/>
<path d="M417.605 192.189L417.573 191.821C417.978 192.002 418.33 192.237 418.629 192.525C418.928 192.813 419.157 193.127 419.317 193.469C419.477 193.81 419.557 194.162 419.557 194.525C419.557 195.133 419.386 195.693 419.045 196.205C418.714 196.706 418.266 197.111 417.701 197.421C417.136 197.719 416.506 197.869 415.813 197.869C415.12 197.869 414.49 197.719 413.925 197.421C413.36 197.111 412.906 196.706 412.565 196.205C412.234 195.693 412.069 195.133 412.069 194.525C412.069 194.034 412.17 193.613 412.373 193.261C412.586 192.898 412.848 192.594 413.157 192.349C413.477 192.103 413.792 191.901 414.101 191.741L413.973 192.189C413.706 192.082 413.445 191.933 413.189 191.741C412.944 191.538 412.741 191.282 412.581 190.973C412.421 190.663 412.341 190.301 412.341 189.885C412.341 189.287 412.496 188.749 412.805 188.269C413.114 187.778 413.53 187.389 414.053 187.101C414.586 186.813 415.173 186.669 415.813 186.669C416.464 186.669 417.045 186.813 417.557 187.101C418.08 187.389 418.496 187.778 418.805 188.269C419.114 188.749 419.269 189.287 419.269 189.885C419.269 190.343 419.178 190.727 418.997 191.037C418.816 191.346 418.597 191.591 418.341 191.773C418.085 191.954 417.84 192.093 417.605 192.189ZM414.261 189.917C414.261 190.205 414.325 190.461 414.453 190.685C414.592 190.909 414.778 191.09 415.013 191.229C415.248 191.357 415.514 191.421 415.813 191.421C416.112 191.421 416.373 191.357 416.597 191.229C416.832 191.09 417.013 190.909 417.141 190.685C417.28 190.461 417.349 190.205 417.349 189.917C417.349 189.49 417.2 189.138 416.901 188.861C416.613 188.573 416.25 188.429 415.813 188.429C415.365 188.429 414.992 188.573 414.693 188.861C414.405 189.138 414.261 189.49 414.261 189.917ZM415.813 196.109C416.325 196.109 416.757 195.954 417.109 195.645C417.461 195.325 417.637 194.941 417.637 194.493C417.637 194.183 417.557 193.906 417.397 193.661C417.237 193.415 417.018 193.223 416.741 193.085C416.464 192.935 416.154 192.861 415.813 192.861C415.472 192.861 415.162 192.935 414.885 193.085C414.608 193.223 414.389 193.415 414.229 193.661C414.069 193.906 413.989 194.183 413.989 194.493C413.989 194.941 414.165 195.325 414.517 195.645C414.869 195.954 415.301 196.109 415.813 196.109ZM415.058 218.029C414.664 218.029 414.242 217.97 413.794 217.853C413.346 217.725 412.978 217.543 412.69 217.309C412.552 217.191 412.44 217.042 412.354 216.861C412.28 216.669 412.242 216.487 412.242 216.317C412.242 216.135 412.317 215.965 412.466 215.805C412.626 215.645 412.85 215.565 413.138 215.565C413.33 215.565 413.57 215.666 413.858 215.869C414.029 215.975 414.216 216.071 414.418 216.157C414.621 216.242 414.829 216.285 415.042 216.285C415.554 216.285 415.997 216.194 416.37 216.013C416.744 215.821 417.032 215.559 417.234 215.229C417.437 214.898 417.538 214.509 417.538 214.061C417.538 213.655 417.442 213.309 417.25 213.021C417.069 212.733 416.824 212.509 416.514 212.349C416.216 212.189 415.89 212.109 415.538 212.109C415.208 212.109 414.92 212.162 414.674 212.269C414.429 212.375 414.205 212.487 414.002 212.605C413.8 212.711 413.597 212.765 413.394 212.765C413.042 212.765 412.781 212.69 412.61 212.541C412.44 212.381 412.333 212.194 412.29 211.981C412.248 211.767 412.237 211.575 412.258 211.405L412.754 207.517C412.797 207.293 412.904 207.111 413.074 206.973C413.256 206.823 413.469 206.749 413.714 206.749H418.338C418.594 206.749 418.808 206.834 418.978 207.005C419.149 207.175 419.234 207.389 419.234 207.645C419.234 207.89 419.149 208.098 418.978 208.269C418.808 208.429 418.594 208.509 418.338 208.509H414.21L414.386 208.365L413.954 211.613L413.746 211.005C413.81 210.898 413.949 210.797 414.162 210.701C414.376 210.605 414.621 210.525 414.898 210.461C415.176 210.386 415.448 210.349 415.714 210.349C416.429 210.349 417.069 210.514 417.634 210.845C418.2 211.165 418.642 211.607 418.962 212.173C419.293 212.727 419.458 213.357 419.458 214.061C419.458 214.861 419.277 215.559 418.914 216.157C418.552 216.754 418.04 217.218 417.378 217.549C416.728 217.869 415.954 218.029 415.058 218.029Z" fill="white"/>
<path d="M546.713 187.212H470.802C467.941 187.212 465.622 184.862 465.622 181.963V169.929C465.622 167.03 467.941 164.68 470.802 164.68H546.713C549.574 164.68 551.893 167.03 551.893 169.929V181.963C551.893 184.862 549.574 187.212 546.713 187.212Z" fill="#185917"/>
<path d="M476.282 181.854C475.942 181.854 475.669 181.732 475.461 181.486C475.254 181.24 475.164 180.932 475.189 180.563L475.516 177.645L475.481 177.498L475.298 177.535L472.928 179.27C472.637 179.491 472.333 179.573 472.017 179.51C471.702 179.449 471.447 179.258 471.253 178.938C471.034 178.544 470.991 178.199 471.125 177.904C471.257 177.608 471.483 177.4 471.798 177.276L474.459 176.057L474.569 175.947L474.459 175.836L471.798 174.617C471.459 174.47 471.24 174.236 471.144 173.916C471.046 173.596 471.083 173.276 471.253 172.956C471.447 172.635 471.702 172.445 472.017 172.382C472.333 172.322 472.637 172.39 472.928 172.587L475.298 174.36L475.481 174.395L475.516 174.248L475.189 171.33C475.164 170.961 475.261 170.653 475.481 170.408C475.7 170.161 475.991 170.039 476.355 170.039C476.695 170.039 476.974 170.161 477.193 170.408C477.412 170.653 477.497 170.961 477.448 171.33L477.12 174.248L477.156 174.395L477.34 174.36L479.709 172.624C479.999 172.401 480.31 172.322 480.639 172.382C480.965 172.445 481.214 172.635 481.384 172.956C481.603 173.349 481.646 173.694 481.51 173.99C481.378 174.285 481.153 174.495 480.837 174.617L478.177 175.836L478.068 175.947L478.177 176.057L480.837 177.276C481.179 177.423 481.403 177.658 481.51 177.977C481.62 178.299 481.579 178.619 481.384 178.938C481.214 179.258 480.965 179.449 480.639 179.51C480.31 179.573 479.999 179.503 479.709 179.308L477.34 177.535L477.156 177.498L477.12 177.645L477.448 180.563C477.497 180.932 477.405 181.24 477.176 181.486C476.943 181.732 476.646 181.854 476.282 181.854Z" fill="white"/>
<path d="M491.982 181.854C491.643 181.854 491.37 181.732 491.163 181.486C490.955 181.24 490.865 180.932 490.889 180.563L491.217 177.645L491.181 177.498L490.999 177.535L488.63 179.27C488.338 179.491 488.034 179.573 487.718 179.51C487.403 179.449 487.148 179.258 486.954 178.938C486.735 178.544 486.692 178.199 486.826 177.904C486.958 177.608 487.183 177.4 487.499 177.276L490.16 176.057L490.27 175.947L490.16 175.836L487.499 174.617C487.16 174.47 486.941 174.236 486.844 173.916C486.747 173.596 486.784 173.276 486.954 172.956C487.148 172.635 487.403 172.445 487.718 172.382C488.034 172.322 488.338 172.39 488.63 172.587L490.999 174.36L491.181 174.395L491.217 174.248L490.889 171.33C490.865 170.961 490.962 170.653 491.181 170.408C491.4 170.161 491.691 170.039 492.056 170.039C492.397 170.039 492.675 170.161 492.894 170.408C493.113 170.653 493.198 170.961 493.149 171.33L492.821 174.248L492.858 174.395L493.04 174.36L495.409 172.624C495.699 172.401 496.011 172.322 496.338 172.382C496.666 172.445 496.915 172.635 497.086 172.956C497.303 173.349 497.346 173.694 497.211 173.99C497.079 174.285 496.854 174.495 496.538 174.617L493.878 175.836L493.769 175.947L493.878 176.057L496.538 177.276C496.878 177.423 497.104 177.658 497.211 177.977C497.321 178.299 497.28 178.619 497.086 178.938C496.915 179.258 496.666 179.449 496.338 179.51C496.011 179.573 495.699 179.503 495.409 179.308L493.04 177.535L492.858 177.498L492.821 177.645L493.149 180.563C493.198 180.932 493.106 181.24 492.876 181.486C492.644 181.732 492.347 181.854 491.982 181.854Z" fill="white"/>
<path d="M507.683 181.854C507.344 181.854 507.07 181.732 506.864 181.486C506.655 181.24 506.565 180.932 506.59 180.563L506.918 177.645L506.882 177.498L506.7 177.535L504.329 179.27C504.038 179.491 503.734 179.573 503.419 179.51C503.103 179.449 502.848 179.258 502.655 178.938C502.435 178.544 502.392 178.199 502.527 177.904C502.659 177.608 502.884 177.4 503.2 177.276L505.861 176.057L505.97 175.947L505.861 175.836L503.2 174.617C502.861 174.47 502.641 174.236 502.545 173.916C502.448 173.596 502.485 173.276 502.655 172.956C502.848 172.635 503.103 172.445 503.419 172.382C503.734 172.322 504.038 172.39 504.329 172.587L506.7 174.36L506.882 174.395L506.918 174.248L506.59 171.33C506.565 170.961 506.663 170.653 506.882 170.408C507.101 170.161 507.392 170.039 507.757 170.039C508.098 170.039 508.375 170.161 508.594 170.408C508.814 170.653 508.899 170.961 508.849 171.33L508.522 174.248L508.559 174.395L508.741 174.36L511.11 172.624C511.4 172.401 511.711 172.322 512.04 172.382C512.367 172.445 512.616 172.635 512.787 172.956C513.004 173.349 513.047 173.694 512.912 173.99C512.78 174.285 512.554 174.495 512.239 174.617L509.579 175.836L509.469 175.947L509.579 176.057L512.239 177.276C512.58 177.423 512.804 177.658 512.912 177.977C513.021 178.299 512.98 178.619 512.787 178.938C512.616 179.258 512.367 179.449 512.04 179.51C511.711 179.573 511.4 179.503 511.11 179.308L508.741 177.535L508.559 177.498L508.522 177.645L508.849 180.563C508.899 180.932 508.806 181.24 508.577 181.486C508.345 181.732 508.047 181.854 507.683 181.854Z" fill="white"/>
<path d="M523.383 181.854C523.044 181.854 522.771 181.732 522.565 181.486C522.356 181.24 522.266 180.932 522.291 180.563L522.619 177.645L522.582 177.498L522.4 177.535L520.031 179.27C519.739 179.491 519.435 179.573 519.119 179.51C518.804 179.449 518.549 179.258 518.355 178.938C518.136 178.544 518.093 178.199 518.227 177.904C518.359 177.608 518.585 177.4 518.9 177.276L521.561 176.057L521.671 175.947L521.561 175.836L518.9 174.617C518.561 174.47 518.342 174.236 518.246 173.916C518.148 173.596 518.185 173.276 518.355 172.956C518.549 172.635 518.804 172.445 519.119 172.382C519.435 172.322 519.739 172.39 520.031 172.587L522.4 174.36L522.582 174.395L522.619 174.248L522.291 171.33C522.266 170.961 522.363 170.653 522.582 170.408C522.802 170.161 523.093 170.039 523.457 170.039C523.798 170.039 524.076 170.161 524.295 170.408C524.514 170.653 524.599 170.961 524.55 171.33L524.222 174.248L524.259 174.395L524.442 174.36L526.811 172.624C527.101 172.401 527.412 172.322 527.741 172.382C528.067 172.445 528.316 172.635 528.486 172.956C528.705 173.349 528.748 173.694 528.612 173.99C528.48 174.285 528.255 174.495 527.939 174.617L525.279 175.836L525.17 175.947L525.279 176.057L527.939 177.276C528.281 177.423 528.505 177.658 528.612 177.977C528.722 178.299 528.681 178.619 528.486 178.938C528.316 179.258 528.067 179.449 527.741 179.51C527.412 179.573 527.101 179.503 526.811 179.308L524.442 177.535L524.259 177.498L524.222 177.645L524.55 180.563C524.599 180.932 524.507 181.24 524.278 181.486C524.045 181.732 523.748 181.854 523.383 181.854Z" fill="white"/>
<path d="M539.085 181.854C538.746 181.854 538.472 181.732 538.266 181.486C538.058 181.24 537.967 180.932 537.992 180.563L538.321 177.645L538.283 177.498L538.102 177.535L535.732 179.27C535.441 179.491 535.136 179.573 534.821 179.51C534.506 179.449 534.251 179.258 534.057 178.938C533.838 178.544 533.795 178.199 533.928 177.904C534.06 177.608 534.286 177.4 534.602 177.276L537.263 176.057L537.373 175.947L537.263 175.836L534.602 174.617C534.262 174.47 534.044 174.236 533.946 173.916C533.849 173.596 533.887 173.276 534.057 172.956C534.251 172.635 534.506 172.445 534.821 172.382C535.136 172.322 535.441 172.39 535.732 172.587L538.102 174.36L538.283 174.395L538.321 174.248L537.992 171.33C537.967 170.961 538.064 170.653 538.283 170.408C538.502 170.161 538.793 170.039 539.159 170.039C539.499 170.039 539.778 170.161 539.996 170.408C540.215 170.653 540.301 170.961 540.252 171.33L539.924 174.248L539.96 174.395L540.143 174.36L542.511 172.624C542.801 172.401 543.113 172.322 543.441 172.382C543.769 172.445 544.017 172.635 544.188 172.956C544.406 173.349 544.448 173.694 544.314 173.99C544.182 174.285 543.956 174.495 543.64 174.617L540.981 175.836L540.87 175.947L540.981 176.057L543.64 177.276C543.981 177.423 544.206 177.658 544.314 177.977C544.424 178.299 544.382 178.619 544.188 178.938C544.017 179.258 543.769 179.449 543.441 179.51C543.113 179.573 542.801 179.503 542.511 179.308L540.143 177.535L539.96 177.498L539.924 177.645L540.252 180.563C540.301 180.932 540.209 181.24 539.978 181.486C539.747 181.732 539.45 181.854 539.085 181.854Z" fill="#5DA4DE"/>
</svg>
