<svg width="639" height="590" viewBox="0 0 639 590" fill="none" xmlns="http://www.w3.org/2000/svg">
<path d="M230.348 507.299L229.737 495.256C229.673 495.227 229.609 495.197 229.546 495.168C222.991 492.156 215.478 497.608 217.572 503.824C219.542 509.673 220.865 515.979 224.471 521.098C226.602 524.072 229.469 526.588 232.861 528.459C236.253 530.331 240.083 531.51 244.066 531.909L252.394 536.373C253.537 530.796 253.285 525.068 251.655 519.584C250.026 514.1 247.058 508.99 242.956 504.607C240.627 502.168 237.957 499.995 235.008 498.14C233.013 502.745 230.348 507.299 230.348 507.299Z" fill="#F2F2F2"/>
<path d="M155.787 385.087C139.753 370.61 116.519 362.308 92.0402 362.308L91.096 362.31C74.9727 362.315 59.1371 358.571 45.2088 351.46L43.7594 350.721L44.9268 349.668C51.2466 343.943 56.5237 337.402 60.5731 330.274C57.6971 332.621 54.267 334.386 50.5253 335.445C46.7837 336.503 42.8221 336.828 38.921 336.397C34.8023 335.968 30.8483 334.727 27.3556 332.768C23.8628 330.809 20.922 328.184 18.7537 325.088C10.1982 312.935 0 295.69 0 282.553C0.0133179 271.448 2.66892 260.468 7.79754 250.313C12.9262 240.157 20.4153 231.048 29.7875 223.566C35.721 218.882 40.4603 213.156 43.6965 206.76C46.9327 200.365 48.5931 193.445 48.5694 186.45L48.5647 185.454C48.5631 176.245 49.8484 167.071 52.3921 158.135L52.6504 157.233L53.7108 157.265C60.5489 157.469 67.3906 156.967 74.0946 155.77C67.8062 155.095 61.6545 153.662 55.8138 151.513L54.6731 151.109L55.0602 150.086C81.7472 135.619 141.988 143.111 176.953 73.0707C205.305 16.2779 305.341 123.486 305.341 185.454C305.341 191.778 298.193 200.134 303.544 204.313C361.384 249.491 321.475 278.502 308.892 307.694C305.907 314.62 312.38 322.224 312.38 329.717C312.38 330.989 312.343 332.301 312.27 333.618L312.159 335.643L310.23 334.519C306.415 332.331 302.878 329.791 299.681 326.944C302.998 333.627 304.561 340.876 304.256 348.158C303.95 355.44 301.784 362.569 297.915 369.021C291.854 379.037 285.99 386.208 280.486 390.333C262.855 403.543 240.126 410.357 216.947 409.382C193.768 408.407 171.89 399.716 155.787 385.087Z" fill="#94BF54"/>
<path d="M252.624 535.779C253.018 535.779 253.399 535.654 253.697 535.428C253.994 535.201 254.189 534.889 254.244 534.547C254.314 534.119 261.131 491.071 255.008 433.858C249.354 381.021 231.195 304.916 176.797 242.413C176.667 242.263 176.504 242.137 176.318 242.042C176.132 241.947 175.927 241.885 175.713 241.859C175.5 241.834 175.283 241.846 175.075 241.894C174.867 241.942 174.671 242.026 174.5 242.14C174.329 242.254 174.185 242.397 174.077 242.56C173.969 242.723 173.898 242.903 173.869 243.09C173.841 243.276 173.854 243.466 173.91 243.649C173.965 243.831 174.061 244.002 174.191 244.152C228.119 306.115 246.131 381.661 251.746 434.126C257.833 491.005 251.069 533.718 251 534.143C250.967 534.346 250.985 534.554 251.051 534.751C251.118 534.948 251.232 535.13 251.386 535.285C251.54 535.44 251.73 535.565 251.944 535.65C252.158 535.735 252.39 535.779 252.624 535.779Z" fill="#3F3D56"/>
<path d="M208.233 330.577C208.579 330.577 208.916 330.481 209.196 330.303C209.476 330.125 209.685 329.874 209.792 329.586C209.899 329.298 209.899 328.988 209.792 328.699C209.686 328.411 209.477 328.16 209.197 327.982C209 327.856 189.1 315.303 159.349 305.766C131.847 296.95 90.0265 288.959 46.9727 300.955C46.7674 301.012 46.5769 301.104 46.4122 301.225C46.2474 301.347 46.1116 301.496 46.0125 301.663C45.9134 301.83 45.853 302.013 45.8347 302.201C45.8165 302.389 45.8407 302.578 45.906 302.758C45.9713 302.937 46.0764 303.104 46.2153 303.248C46.3542 303.392 46.5242 303.511 46.7156 303.597C46.907 303.684 47.1159 303.736 47.3305 303.752C47.5451 303.768 47.7611 303.746 47.9662 303.689C90.138 291.938 131.201 299.798 158.223 308.46C187.548 317.86 207.077 330.179 207.271 330.303C207.55 330.481 207.887 330.577 208.233 330.577Z" fill="#3F3D56"/>
<path d="M283.214 167.074C283.239 166.772 283.154 166.471 282.972 166.213C282.789 165.956 282.518 165.755 282.198 165.641C281.877 165.527 281.524 165.504 281.188 165.577C280.852 165.65 280.551 165.813 280.328 166.045C280.17 166.208 264.436 182.682 251.428 207.974C239.405 231.356 227.289 267.3 237.856 305.76C237.957 306.13 238.223 306.449 238.593 306.648C238.964 306.847 239.409 306.908 239.832 306.819C240.254 306.73 240.619 306.498 240.846 306.174C241.072 305.849 241.143 305.459 241.041 305.089C230.692 267.417 242.603 232.125 254.416 209.152C267.238 184.221 282.678 168.055 282.832 167.894C283.056 167.663 283.189 167.376 283.214 167.074Z" fill="#3F3D56"/>
<path d="M309.442 142.254C309.458 140.447 308.307 138.975 306.871 138.965C305.435 138.956 304.258 140.413 304.243 142.22C304.227 144.027 305.378 145.5 306.814 145.509C308.25 145.519 309.427 144.062 309.442 142.254Z" fill="#E6E6E6"/>
<path d="M571.356 149.824C563.839 163.664 549.933 169.594 549.933 169.594C549.933 169.594 548.214 153.085 555.731 139.245C563.248 125.405 577.155 119.474 577.155 119.474C577.155 119.474 578.873 135.983 571.356 149.824Z" fill="#B9D948"/>
<path d="M541.566 141.318C540.478 156.994 548.592 169.212 548.592 169.212C548.592 169.212 558.471 156.014 559.559 140.338C560.647 124.662 552.532 112.445 552.532 112.445C552.532 112.445 542.654 125.643 541.566 141.318Z" fill="#B9D948"/>
<path d="M547.69 139.833C553.688 153.023 550.133 169.652 550.133 169.652C550.133 169.652 536.853 164.895 530.855 151.705C524.856 138.515 528.411 121.887 528.411 121.887C528.411 121.887 541.691 126.643 547.69 139.833Z" fill="#94BF54"/>
<path d="M567.653 145.533C555.861 153.643 550.133 169.651 550.133 169.651C550.133 169.651 563.524 172.51 575.317 164.399C587.109 156.288 592.837 140.28 592.837 140.28C592.837 140.28 579.446 137.422 567.653 145.533Z" fill="#94BF54"/>
<path d="M428.698 401.499C434.804 414.31 431.767 431.255 431.767 431.255C431.767 431.255 418.829 427.431 412.723 414.62C406.616 401.809 409.654 384.863 409.654 384.863C409.654 384.863 422.592 388.688 428.698 401.499Z" fill="#B9D948"/>
<path d="M433.587 307.343C434.766 322.436 444.915 332.585 444.915 332.585C444.915 332.585 453.153 318.263 451.974 303.17C450.796 288.076 440.647 277.928 440.647 277.928C440.647 277.928 432.409 292.25 433.587 307.343Z" fill="#B9D948"/>
<path d="M439.339 304.506C447.493 316.181 446.343 332.846 446.343 332.846C446.343 332.846 431.974 330.583 423.82 318.908C415.666 307.233 416.816 290.568 416.816 290.568C416.816 290.568 431.186 292.831 439.339 304.506Z" fill="#94BF54"/>
<path d="M462.077 351.412C450.284 359.522 444.557 375.531 444.557 375.531C444.557 375.531 457.948 378.389 469.74 370.278C481.533 362.167 487.261 346.159 487.261 346.159C487.261 346.159 473.869 343.301 462.077 351.412Z" fill="#94BF54"/>
<path d="M423.931 466.611C410.848 468.177 399.955 480.758 399.955 480.758C399.955 480.758 410.273 490.799 423.356 489.232C436.439 487.666 447.333 475.085 447.333 475.085C447.333 475.085 437.014 465.045 423.931 466.611Z" fill="#94BF54"/>
<path d="M308.568 535.617L307.472 535.14C310.209 527.877 314.633 521.519 320.182 516.872C328.325 510.254 338.034 508.541 347.423 506.885C349.132 506.583 350.835 506.283 352.522 505.955C359.39 504.712 366.204 502.627 372.851 499.733C397.464 488.671 419.229 461.925 431.071 428.187C440.505 401.309 444.365 369.544 442.87 331.078L444.081 330.863C445.585 369.548 441.694 401.523 432.185 428.614C420.198 462.763 398.138 489.849 373.174 501.068C366.445 504 359.547 506.112 352.595 507.37C350.901 507.7 349.192 508.002 347.476 508.304C338.235 509.935 328.678 511.621 320.795 518.029C315.456 522.504 311.2 528.626 308.568 535.617Z" fill="#94BF54"/>
<path d="M420.167 282.472C426.54 284.291 433.46 279.621 435.625 272.041C437.789 264.46 434.377 256.84 428.004 255.021C421.631 253.201 414.711 257.872 412.547 265.452C410.382 273.032 413.794 280.652 420.167 282.472Z" fill="#94BF54"/>
<path d="M523.016 346.784C529.388 359.67 526.399 376.63 526.399 376.63C526.399 376.63 513.08 372.697 506.708 359.81C500.336 346.923 503.324 329.963 503.324 329.963C503.324 329.963 516.644 333.897 523.016 346.784Z" fill="#B9D948"/>
<path d="M528.381 252.153C529.451 267.625 539.547 277.96 539.547 277.96C539.547 277.96 547.907 263.209 546.837 247.737C545.767 232.265 535.671 221.93 535.671 221.93C535.671 221.93 527.31 236.681 528.381 252.153Z" fill="#B9D948"/>
<path d="M533.708 249.806C541.331 261.329 540.014 277.946 540.014 277.946C540.014 277.946 526.338 275.881 518.715 264.358C511.093 252.835 512.409 236.217 512.409 236.217C512.409 236.217 526.085 238.283 533.708 249.806Z" fill="#94BF54"/>
<path d="M556.709 296.787C544.917 304.897 539.189 320.905 539.189 320.905C539.189 320.905 552.58 323.764 564.373 315.653C576.165 307.542 581.893 291.534 581.893 291.534C581.893 291.534 568.501 288.676 556.709 296.787Z" fill="#94BF54"/>
<path d="M518.982 412.106C505.634 413.596 494.587 426.133 494.587 426.133C494.587 426.133 505.182 436.253 518.531 434.762C531.879 433.272 542.926 420.735 542.926 420.735C542.926 420.735 532.331 410.615 518.982 412.106Z" fill="#94BF54"/>
<path d="M403.592 479.619L402.496 479.142C405.233 471.88 409.657 465.521 415.206 460.875C423.349 454.257 433.058 452.544 442.447 450.888C444.156 450.586 445.859 450.285 447.546 449.957C454.414 448.715 461.228 446.629 467.876 443.735C492.489 432.673 514.253 405.927 526.095 372.189C535.53 345.311 539.389 313.546 537.893 275.081L539.106 274.865C540.61 313.551 536.718 345.526 527.209 372.616C515.223 406.766 493.162 433.851 468.199 445.07C461.469 448.002 454.571 450.115 447.619 451.373C445.925 451.703 444.216 452.004 442.5 452.307C433.259 453.938 423.702 455.624 415.819 462.031C410.479 466.506 406.224 472.628 403.592 479.619Z" fill="#94BF54"/>
<path d="M515.191 226.474C521.033 228.142 527.435 223.656 529.491 216.455C531.547 209.253 528.478 202.064 522.636 200.396C516.795 198.728 510.392 203.214 508.336 210.415C506.28 217.616 509.349 224.806 515.191 226.474Z" fill="#94BF54"/>
<path d="M306.915 322.882C319.04 326.681 325.747 339.995 325.747 339.995C325.747 339.995 312.796 347.149 300.67 343.35C288.545 339.551 281.837 326.237 281.837 326.237C281.837 326.237 294.789 319.083 306.915 322.882Z" fill="#B9D948"/>
<path d="M259.486 253.393C268.979 263.396 283.377 262.561 283.377 262.561C283.377 262.561 282.385 245.508 272.892 235.505C263.4 225.501 249.001 226.336 249.001 226.336C249.001 226.336 249.994 243.39 259.486 253.393Z" fill="#B9D948"/>
<path d="M262.636 246.553C275.516 248.715 283.669 261.54 283.669 261.54C283.669 261.54 270.939 270.86 258.059 268.697C245.179 266.535 237.026 253.71 237.026 253.71C237.026 253.71 249.756 244.391 262.636 246.553Z" fill="#94BF54"/>
<path d="M307.644 261.824C301.986 277.015 306.107 292.955 306.107 292.955C306.107 292.955 319.401 284.266 325.059 269.076C330.717 253.885 326.596 237.944 326.596 237.944C326.596 237.944 313.302 246.633 307.644 261.824Z" fill="#94BF54"/>
<path d="M338.452 371.857C328.08 382.833 325.806 399.519 325.806 399.519C325.806 399.519 340.348 398.411 350.72 387.435C361.092 376.459 363.365 359.773 363.365 359.773C363.365 359.773 348.823 360.881 338.452 371.857Z" fill="#94BF54"/>
<path d="M280.507 506.824C278.776 499.695 278.946 491.902 280.996 484.433C284.116 473.611 291.244 464.99 298.138 456.653C299.392 455.136 300.642 453.624 301.863 452.105C306.889 445.986 311.404 439.324 315.334 432.229C329.697 405.717 333.036 370.518 324.266 338.07C317.28 312.22 302.961 287.252 280.492 261.739L281.381 260.661C303.979 286.321 318.387 311.459 325.428 337.513C334.304 370.356 330.907 406.017 316.34 432.907C312.362 440.091 307.792 446.836 302.705 453.031C301.479 454.556 300.225 456.073 298.966 457.595C292.18 465.801 285.164 474.287 282.143 484.765C280.173 491.955 280.012 499.456 281.681 506.316L280.507 506.824Z" fill="#94BF54"/>
<path d="M367.887 104.27C355.572 101.136 342.445 110.307 342.445 110.307C342.445 110.307 349.286 124.559 361.601 127.692C373.917 130.826 387.043 121.655 387.043 121.655C387.043 121.655 380.203 107.403 367.887 104.27Z" fill="#B9D948"/>
<path d="M444.179 70.5003C431.294 73.3856 419.681 65.6189 419.681 65.6189C419.681 65.6189 428.958 53.1744 441.844 50.2892C454.729 47.404 466.342 55.1706 466.342 55.1706C466.342 55.1706 457.064 67.6151 444.179 70.5003Z" fill="#B9D948"/>
<path d="M445.399 64.1947C433.319 59.2308 419.624 65.8184 419.624 65.8184C419.624 65.8184 425.515 80.4542 437.595 85.4181C449.675 90.3821 463.37 83.7944 463.37 83.7944C463.37 83.7944 457.479 69.1587 445.399 64.1947Z" fill="#94BF54"/>
<path d="M398.91 54.1138C395.803 69.6231 383.982 80.6521 383.982 80.6521C383.982 80.6521 377.199 66.5357 380.306 51.0264C383.413 35.5172 395.233 24.4881 395.233 24.4881C395.233 24.4881 402.017 38.6045 398.91 54.1138Z" fill="#94BF54"/>
<path d="M315.098 129.733C318.003 144.909 310.99 160.753 310.99 160.753C310.99 160.753 299.266 151.991 296.361 136.814C293.455 121.638 300.469 105.795 300.469 105.795C300.469 105.795 312.193 114.557 315.098 129.733Z" fill="#94BF54"/>
<path d="M292.416 277.171L291.689 276.115C296.738 271.135 300.574 264.637 302.709 257.449C305.693 246.893 304.232 235.925 302.818 225.317C302.555 223.349 302.294 221.386 302.061 219.433C301.023 211.443 300.716 203.257 301.144 195.01C303.018 164.31 319.019 132.026 343.946 108.651C363.72 90.1077 389.262 76.2482 422.031 66.2802L422.215 67.6717C389.632 77.5828 364.256 91.3444 344.637 109.742C320.011 132.836 304.205 164.694 302.357 194.962C301.935 203.109 302.24 211.195 303.265 219.087C303.498 221.033 303.758 222.988 304.02 224.95C305.456 235.727 306.941 246.87 303.858 257.772C301.644 265.242 297.661 271.995 292.416 277.171Z" fill="#94BF54"/>
<path d="M475.544 83.0424C481.651 84.7861 488.269 80.3617 490.325 73.1605C492.381 65.9592 489.096 58.7079 482.989 56.9643C476.882 55.2207 470.264 59.645 468.208 66.8463C466.152 74.0476 469.437 81.2988 475.544 83.0424Z" fill="#94BF54"/>
</svg>
